<svg xmlns="http://www.w3.org/2000/svg" xmlns:xlink="http://www.w3.org/1999/xlink" contentStyleType="text/css" height="632px" preserveAspectRatio="none" style="width:1001px;height:632px;background:#FFFFFF;" version="1.1" viewBox="0 0 1001 632" width="1001px" zoomAndPan="magnify"><defs/><g><!--class GloveController--><g id="elem_GloveController"><rect codeLine="6" fill="#F1F1F1" height="73.9102" id="GloveController" rx="2.5" ry="2.5" style="stroke:#181818;stroke-width:0.5;" width="115.2627" x="386.73" y="7"/><ellipse cx="401.73" cy="23" fill="#ADD1B2" rx="11" ry="11" style="stroke:#181818;stroke-width:1.0;"/><path d="M404.7031,28.6431 Q404.1221,28.9419 403.4829,29.0913 Q402.8438,29.2407 402.1382,29.2407 Q399.6314,29.2407 398.3115,27.5889 Q396.9917,25.937 396.9917,22.8159 Q396.9917,19.6865 398.3115,18.0347 Q399.6314,16.3828 402.1382,16.3828 Q402.8438,16.3828 403.4912,16.5322 Q404.1387,16.6816 404.7031,16.9805 L404.7031,19.7031 Q404.0723,19.1221 403.4788,18.8523 Q402.8853,18.5825 402.2544,18.5825 Q400.9097,18.5825 400.2249,19.6492 Q399.5401,20.7158 399.5401,22.8159 Q399.5401,24.9077 400.2249,25.9744 Q400.9097,27.041 402.2544,27.041 Q402.8853,27.041 403.4788,26.7712 Q404.0723,26.5015 404.7031,25.9204 Z " fill="#000000"/><text fill="#000000" font-family="sans-serif" font-size="11" lengthAdjust="spacing" textLength="83.2627" x="415.73" y="27.1572">GloveController</text><line style="stroke:#181818;stroke-width:0.5;" x1="387.73" x2="500.9927" y1="39" y2="39"/><line style="stroke:#181818;stroke-width:0.5;" x1="387.73" x2="500.9927" y1="47" y2="47"/><ellipse cx="397.73" cy="58.9775" fill="#84BE84" rx="3" ry="3" style="stroke:#038048;stroke-width:1.0;"/><text fill="#000000" font-family="sans-serif" font-size="11" lengthAdjust="spacing" textLength="36.7544" x="406.73" y="61.6348">setup()</text><ellipse cx="397.73" cy="71.9326" fill="#84BE84" rx="3" ry="3" style="stroke:#038048;stroke-width:1.0;"/><text fill="#000000" font-family="sans-serif" font-size="11" lengthAdjust="spacing" textLength="30.771" x="406.73" y="74.5898">loop()</text></g><!--class GestureControl--><g id="elem_GestureControl"><rect codeLine="12" fill="#F1F1F1" height="242.3262" id="GestureControl" rx="2.5" ry="2.5" style="stroke:#181818;stroke-width:0.5;" width="200.0396" x="132.34" y="141.91"/><ellipse cx="187.609" cy="157.91" fill="#ADD1B2" rx="11" ry="11" style="stroke:#181818;stroke-width:1.0;"/><path d="M190.5822,163.5531 Q190.0011,163.8519 189.362,164.0013 Q188.7228,164.1507 188.0172,164.1507 Q185.5104,164.1507 184.1906,162.4989 Q182.8708,160.847 182.8708,157.7259 Q182.8708,154.5965 184.1906,152.9447 Q185.5104,151.2928 188.0172,151.2928 Q188.7228,151.2928 189.3703,151.4422 Q190.0177,151.5916 190.5822,151.8905 L190.5822,154.6131 Q189.9513,154.0321 189.3578,153.7623 Q188.7643,153.4925 188.1335,153.4925 Q186.7887,153.4925 186.1039,154.5592 Q185.4191,155.6258 185.4191,157.7259 Q185.4191,159.8177 186.1039,160.8844 Q186.7887,161.951 188.1335,161.951 Q188.7643,161.951 189.3578,161.6812 Q189.9513,161.4115 190.5822,160.8304 Z " fill="#000000"/><text fill="#000000" font-family="sans-serif" font-size="11" lengthAdjust="spacing" textLength="81.0015" x="208.109" y="162.0672">GestureControl</text><line style="stroke:#181818;stroke-width:0.5;" x1="133.34" x2="331.3796" y1="173.91" y2="173.91"/><rect fill="none" height="6" style="stroke:#C82930;stroke-width:1.0;" width="6" x="140.34" y="182.8875"/><text fill="#000000" font-family="sans-serif" font-size="11" lengthAdjust="spacing" textLength="55.1719" x="152.34" y="188.5448">imu: IMU&amp;</text><rect fill="none" height="6" style="stroke:#C82930;stroke-width:1.0;" width="6" x="140.34" y="195.8426"/><text fill="#000000" font-family="sans-serif" font-size="11" lengthAdjust="spacing" textLength="140.0029" x="152.34" y="201.4998">lastUpdate: unsigned long</text><rect fill="none" height="6" style="stroke:#C82930;stroke-width:1.0;" width="6" x="140.34" y="208.7977"/><text fill="#000000" font-family="sans-serif" font-size="11" lengthAdjust="spacing" textLength="115.7471" x="152.34" y="214.4549">deadZone: static float</text><rect fill="none" height="6" style="stroke:#C82930;stroke-width:1.0;" width="6" x="140.34" y="221.7528"/><text fill="#000000" font-family="sans-serif" font-size="11" lengthAdjust="spacing" textLength="86.2759" x="152.34" y="227.41">gain: static float</text><rect fill="none" height="6" style="stroke:#C82930;stroke-width:1.0;" width="6" x="140.34" y="234.7079"/><text fill="#000000" font-family="sans-serif" font-size="11" lengthAdjust="spacing" textLength="113.7866" x="152.34" y="240.3651">exponent: static float</text><line style="stroke:#181818;stroke-width:0.5;" x1="133.34" x2="331.3796" y1="246.6854" y2="246.6854"/><ellipse cx="143.34" cy="258.6629" fill="#84BE84" rx="3" ry="3" style="stroke:#038048;stroke-width:1.0;"/><text fill="#000000" font-family="sans-serif" font-size="11" lengthAdjust="spacing" textLength="143.3276" x="152.34" y="261.3202">GestureControl(imu: IMU&amp;)</text><ellipse cx="143.34" cy="271.618" fill="#84BE84" rx="3" ry="3" style="stroke:#038048;stroke-width:1.0;"/><text fill="#000000" font-family="sans-serif" font-size="11" lengthAdjust="spacing" textLength="24.4546" x="152.34" y="274.2752">init()</text><ellipse cx="143.34" cy="284.5731" fill="#84BE84" rx="3" ry="3" style="stroke:#038048;stroke-width:1.0;"/><text fill="#000000" font-family="sans-serif" font-size="11" lengthAdjust="spacing" textLength="174.0396" x="152.34" y="287.2303">virtualJoystick(flex: FlexSensor&amp;)</text><ellipse cx="143.34" cy="297.5282" fill="#84BE84" rx="3" ry="3" style="stroke:#038048;stroke-width:1.0;"/><text fill="#000000" font-family="sans-serif" font-size="11" lengthAdjust="spacing" textLength="158.0391" x="152.34" y="300.1854">orientation(flex: FlexSensor&amp;)</text><ellipse cx="143.34" cy="310.4832" fill="#84BE84" rx="3" ry="3" style="stroke:#038048;stroke-width:1.0;"/><text fill="#000000" font-family="sans-serif" font-size="11" lengthAdjust="spacing" textLength="62.2725" x="152.34" y="313.1405">getX(): float</text><ellipse cx="143.34" cy="323.4383" fill="#84BE84" rx="3" ry="3" style="stroke:#038048;stroke-width:1.0;"/><text fill="#000000" font-family="sans-serif" font-size="11" lengthAdjust="spacing" textLength="62.2402" x="152.34" y="326.0955">getY(): float</text><ellipse cx="143.34" cy="336.3934" fill="#84BE84" rx="3" ry="3" style="stroke:#038048;stroke-width:1.0;"/><text fill="#000000" font-family="sans-serif" font-size="11" lengthAdjust="spacing" textLength="62.0361" x="152.34" y="339.0506">getZ(): float</text><ellipse cx="143.34" cy="349.3485" fill="#84BE84" rx="3" ry="3" style="stroke:#038048;stroke-width:1.0;"/><text fill="#000000" font-family="sans-serif" font-size="11" lengthAdjust="spacing" textLength="69.228" x="152.34" y="352.0057">getRX(): float</text><ellipse cx="143.34" cy="362.3036" fill="#84BE84" rx="3" ry="3" style="stroke:#038048;stroke-width:1.0;"/><text fill="#000000" font-family="sans-serif" font-size="11" lengthAdjust="spacing" textLength="69.1958" x="152.34" y="364.9608">getRY(): float</text><ellipse cx="143.34" cy="375.2586" fill="#84BE84" rx="3" ry="3" style="stroke:#038048;stroke-width:1.0;"/><text fill="#000000" font-family="sans-serif" font-size="11" lengthAdjust="spacing" textLength="68.9917" x="152.34" y="377.9159">getRZ(): float</text></g><!--class IMU--><g id="elem_IMU"><rect codeLine="31" fill="#F1F1F1" height="164.5957" id="IMU" rx="2.5" ry="2.5" style="stroke:#181818;stroke-width:0.5;" width="166.7173" x="7" y="461.23"/><ellipse cx="75.9761" cy="477.23" fill="#ADD1B2" rx="11" ry="11" style="stroke:#181818;stroke-width:1.0;"/><path d="M78.9492,482.8731 Q78.3682,483.1719 77.729,483.3213 Q77.0898,483.4707 76.3843,483.4707 Q73.8774,483.4707 72.5576,481.8189 Q71.2378,480.167 71.2378,477.0459 Q71.2378,473.9165 72.5576,472.2647 Q73.8774,470.6128 76.3843,470.6128 Q77.0898,470.6128 77.7373,470.7622 Q78.3848,470.9116 78.9492,471.2105 L78.9492,473.9331 Q78.3184,473.3521 77.7249,473.0823 Q77.1313,472.8125 76.5005,472.8125 Q75.1558,472.8125 74.4709,473.8792 Q73.7861,474.9458 73.7861,477.0459 Q73.7861,479.1377 74.4709,480.2044 Q75.1558,481.271 76.5005,481.271 Q77.1313,481.271 77.7249,481.0012 Q78.3184,480.7315 78.9492,480.1504 Z " fill="#000000"/><text fill="#000000" font-family="sans-serif" font-size="11" lengthAdjust="spacing" textLength="20.2651" x="96.4761" y="481.3872">IMU</text><line style="stroke:#181818;stroke-width:0.5;" x1="8" x2="172.7173" y1="493.23" y2="493.23"/><line style="stroke:#181818;stroke-width:0.5;" x1="8" x2="172.7173" y1="501.23" y2="501.23"/><ellipse cx="18" cy="513.2075" fill="#84BE84" rx="3" ry="3" style="stroke:#038048;stroke-width:1.0;"/><text fill="#000000" font-family="sans-serif" font-size="11" lengthAdjust="spacing" textLength="27.4194" x="27" y="515.8648">IMU()</text><ellipse cx="18" cy="526.1626" fill="#84BE84" rx="3" ry="3" style="stroke:#038048;stroke-width:1.0;"/><text fill="#000000" font-family="sans-serif" font-size="11" lengthAdjust="spacing" textLength="24.4546" x="27" y="528.8198">init()</text><ellipse cx="18" cy="539.1177" fill="#84BE84" rx="3" ry="3" style="stroke:#038048;stroke-width:1.0;"/><text fill="#000000" font-family="sans-serif" font-size="11" lengthAdjust="spacing" textLength="25.3086" x="27" y="541.7749">run()</text><ellipse cx="18" cy="552.0728" fill="#84BE84" rx="3" ry="3" style="stroke:#038048;stroke-width:1.0;"/><text fill="#000000" font-family="sans-serif" font-size="11" lengthAdjust="spacing" textLength="81.1035" x="27" y="554.73">heading(): float</text><ellipse cx="18" cy="565.0279" fill="#84BE84" rx="3" ry="3" style="stroke:#038048;stroke-width:1.0;"/><text fill="#000000" font-family="sans-serif" font-size="11" lengthAdjust="spacing" textLength="64.9634" x="27" y="567.6851">pitch(): float</text><ellipse cx="18" cy="577.9829" fill="#84BE84" rx="3" ry="3" style="stroke:#038048;stroke-width:1.0;"/><text fill="#000000" font-family="sans-serif" font-size="11" lengthAdjust="spacing" textLength="55.9023" x="27" y="580.6402">roll(): float</text><ellipse cx="18" cy="590.938" fill="#84BE84" rx="3" ry="3" style="stroke:#038048;stroke-width:1.0;"/><text fill="#000000" font-family="sans-serif" font-size="11" lengthAdjust="spacing" textLength="140.7173" x="27" y="593.5952">getGestureHeading(): float</text><ellipse cx="18" cy="603.8931" fill="#84BE84" rx="3" ry="3" style="stroke:#038048;stroke-width:1.0;"/><text fill="#000000" font-family="sans-serif" font-size="11" lengthAdjust="spacing" textLength="122.4771" x="27" y="606.5503">getGesturePitch(): float</text><ellipse cx="18" cy="616.8482" fill="#84BE84" rx="3" ry="3" style="stroke:#038048;stroke-width:1.0;"/><text fill="#000000" font-family="sans-serif" font-size="11" lengthAdjust="spacing" textLength="116.7139" x="27" y="619.5054">getGestureRoll(): float</text></g><!--class FlexSensor--><g id="elem_FlexSensor"><rect codeLine="43" fill="#F1F1F1" height="86.8652" id="FlexSensor" rx="2.5" ry="2.5" style="stroke:#181818;stroke-width:0.5;" width="207.7686" x="245.47" y="500.1"/><ellipse cx="316.2561" cy="516.1" fill="#ADD1B2" rx="11" ry="11" style="stroke:#181818;stroke-width:1.0;"/><path d="M319.2293,521.7431 Q318.6482,522.0419 318.0091,522.1913 Q317.3699,522.3407 316.6643,522.3407 Q314.1575,522.3407 312.8377,520.6889 Q311.5179,519.037 311.5179,515.9159 Q311.5179,512.7865 312.8377,511.1347 Q314.1575,509.4828 316.6643,509.4828 Q317.3699,509.4828 318.0174,509.6322 Q318.6648,509.7816 319.2293,510.0805 L319.2293,512.8031 Q318.5984,512.2221 318.0049,511.9523 Q317.4114,511.6825 316.7805,511.6825 Q315.4358,511.6825 314.751,512.7492 Q314.0662,513.8158 314.0662,515.9159 Q314.0662,518.0077 314.751,519.0744 Q315.4358,520.141 316.7805,520.141 Q317.4114,520.141 318.0049,519.8712 Q318.5984,519.6015 319.2293,519.0204 Z " fill="#000000"/><text fill="#000000" font-family="sans-serif" font-size="11" lengthAdjust="spacing" textLength="57.6963" x="336.7561" y="520.2572">FlexSensor</text><line style="stroke:#181818;stroke-width:0.5;" x1="246.47" x2="452.2386" y1="532.1" y2="532.1"/><line style="stroke:#181818;stroke-width:0.5;" x1="246.47" x2="452.2386" y1="540.1" y2="540.1"/><ellipse cx="256.47" cy="552.0775" fill="#84BE84" rx="3" ry="3" style="stroke:#038048;stroke-width:1.0;"/><text fill="#000000" font-family="sans-serif" font-size="11" lengthAdjust="spacing" textLength="181.7686" x="265.47" y="554.7348">FlexSensor(pin: int, threshold: int)</text><ellipse cx="256.47" cy="565.0326" fill="#84BE84" rx="3" ry="3" style="stroke:#038048;stroke-width:1.0;"/><text fill="#000000" font-family="sans-serif" font-size="11" lengthAdjust="spacing" textLength="24.4546" x="265.47" y="567.6898">init()</text><ellipse cx="256.47" cy="577.9877" fill="#84BE84" rx="3" ry="3" style="stroke:#038048;stroke-width:1.0;"/><text fill="#000000" font-family="sans-serif" font-size="11" lengthAdjust="spacing" textLength="61.3594" x="265.47" y="580.6449">read(): bool</text></g><!--class UserButton--><g id="elem_UserButton"><rect codeLine="49" fill="#F1F1F1" height="86.8652" id="UserButton" rx="2.5" ry="2.5" style="stroke:#181818;stroke-width:0.5;" width="129.9897" x="438.36" y="219.64"/><ellipse cx="470.9845" cy="235.64" fill="#ADD1B2" rx="11" ry="11" style="stroke:#181818;stroke-width:1.0;"/><path d="M473.9576,241.2831 Q473.3766,241.5819 472.7374,241.7313 Q472.0983,241.8807 471.3927,241.8807 Q468.8859,241.8807 467.566,240.2289 Q466.2462,238.577 466.2462,235.4559 Q466.2462,232.3265 467.566,230.6747 Q468.8859,229.0228 471.3927,229.0228 Q472.0983,229.0228 472.7457,229.1722 Q473.3932,229.3216 473.9576,229.6205 L473.9576,232.3431 Q473.3268,231.7621 472.7333,231.4923 Q472.1398,231.2225 471.5089,231.2225 Q470.1642,231.2225 469.4794,232.2892 Q468.7945,233.3558 468.7945,235.4559 Q468.7945,237.5477 469.4794,238.6144 Q470.1642,239.681 471.5089,239.681 Q472.1398,239.681 472.7333,239.4112 Q473.3268,239.1415 473.9576,238.5604 Z " fill="#000000"/><text fill="#000000" font-family="sans-serif" font-size="11" lengthAdjust="spacing" textLength="58.8242" x="488.901" y="239.7972">UserButton</text><line style="stroke:#181818;stroke-width:0.5;" x1="439.36" x2="567.3497" y1="251.64" y2="251.64"/><line style="stroke:#181818;stroke-width:0.5;" x1="439.36" x2="567.3497" y1="259.64" y2="259.64"/><ellipse cx="449.36" cy="271.6175" fill="#84BE84" rx="3" ry="3" style="stroke:#038048;stroke-width:1.0;"/><text fill="#000000" font-family="sans-serif" font-size="11" lengthAdjust="spacing" textLength="103.9897" x="458.36" y="274.2748">UserButton(pin: int)</text><ellipse cx="449.36" cy="284.5726" fill="#84BE84" rx="3" ry="3" style="stroke:#038048;stroke-width:1.0;"/><text fill="#000000" font-family="sans-serif" font-size="11" lengthAdjust="spacing" textLength="24.4546" x="458.36" y="287.2298">init()</text><ellipse cx="449.36" cy="297.5277" fill="#84BE84" rx="3" ry="3" style="stroke:#038048;stroke-width:1.0;"/><text fill="#000000" font-family="sans-serif" font-size="11" lengthAdjust="spacing" textLength="71.6289" x="458.36" y="300.1849">toggle(): bool</text></g><!--class WiFiWPA2--><g id="elem_WiFiWPA2"><rect codeLine="56" fill="#F1F1F1" height="99.8203" id="WiFiWPA2" rx="2.5" ry="2.5" style="stroke:#181818;stroke-width:0.5;" width="167.9312" x="537.39" y="493.62"/><ellipse cx="591.2545" cy="509.62" fill="#ADD1B2" rx="11" ry="11" style="stroke:#181818;stroke-width:1.0;"/><path d="M594.2276,515.2631 Q593.6466,515.5619 593.0074,515.7113 Q592.3683,515.8607 591.6627,515.8607 Q589.1559,515.8607 587.836,514.2089 Q586.5162,512.557 586.5162,509.4359 Q586.5162,506.3065 587.836,504.6547 Q589.1559,503.0028 591.6627,503.0028 Q592.3683,503.0028 593.0157,503.1522 Q593.6632,503.3016 594.2276,503.6005 L594.2276,506.3231 Q593.5968,505.7421 593.0033,505.4723 Q592.4098,505.2025 591.7789,505.2025 Q590.4342,505.2025 589.7494,506.2692 Q589.0646,507.3358 589.0646,509.4359 Q589.0646,511.5277 589.7494,512.5944 Q590.4342,513.661 591.7789,513.661 Q592.4098,513.661 593.0033,513.3912 Q593.5968,513.1215 594.2276,512.5404 Z " fill="#000000"/><text fill="#000000" font-family="sans-serif" font-size="11" lengthAdjust="spacing" textLength="51.7021" x="611.7545" y="513.7772">WiFiWPA2</text><line style="stroke:#181818;stroke-width:0.5;" x1="538.39" x2="704.3212" y1="525.62" y2="525.62"/><line style="stroke:#181818;stroke-width:0.5;" x1="538.39" x2="704.3212" y1="533.62" y2="533.62"/><ellipse cx="548.39" cy="545.5975" fill="#84BE84" rx="3" ry="3" style="stroke:#038048;stroke-width:1.0;"/><text fill="#000000" font-family="sans-serif" font-size="11" lengthAdjust="spacing" textLength="58.8564" x="557.39" y="548.2548">WiFiWPA2()</text><ellipse cx="548.39" cy="558.5526" fill="#84BE84" rx="3" ry="3" style="stroke:#038048;stroke-width:1.0;"/><text fill="#000000" font-family="sans-serif" font-size="11" lengthAdjust="spacing" textLength="24.4546" x="557.39" y="561.2098">init()</text><ellipse cx="548.39" cy="571.5077" fill="#84BE84" rx="3" ry="3" style="stroke:#038048;stroke-width:1.0;"/><text fill="#000000" font-family="sans-serif" font-size="11" lengthAdjust="spacing" textLength="54.4253" x="557.39" y="574.1649">homeInit()</text><ellipse cx="548.39" cy="584.4628" fill="#84BE84" rx="3" ry="3" style="stroke:#038048;stroke-width:1.0;"/><text fill="#000000" font-family="sans-serif" font-size="11" lengthAdjust="spacing" textLength="141.9312" x="557.39" y="587.12">getWiFiClient(): WiFiClient*</text></g><!--class MQTT--><g id="elem_MQTT"><rect codeLine="63" fill="#F1F1F1" height="99.8203" id="MQTT" rx="2.5" ry="2.5" style="stroke:#181818;stroke-width:0.5;" width="319.3745" x="674.67" y="213.16"/><ellipse cx="814.1417" cy="229.16" fill="#ADD1B2" rx="11" ry="11" style="stroke:#181818;stroke-width:1.0;"/><path d="M817.1148,234.8031 Q816.5338,235.1019 815.8946,235.2513 Q815.2554,235.4007 814.5499,235.4007 Q812.043,235.4007 810.7232,233.7489 Q809.4034,232.097 809.4034,228.9759 Q809.4034,225.8465 810.7232,224.1947 Q812.043,222.5428 814.5499,222.5428 Q815.2554,222.5428 815.9029,222.6922 Q816.5504,222.8416 817.1148,223.1405 L817.1148,225.8631 Q816.484,225.2821 815.8905,225.0123 Q815.297,224.7425 814.6661,224.7425 Q813.3214,224.7425 812.6366,225.8092 Q811.9517,226.8758 811.9517,228.9759 Q811.9517,231.0677 812.6366,232.1344 Q813.3214,233.201 814.6661,233.201 Q815.297,233.201 815.8905,232.9312 Q816.484,232.6615 817.1148,232.0804 Z " fill="#000000"/><text fill="#000000" font-family="sans-serif" font-size="11" lengthAdjust="spacing" textLength="31.9312" x="834.6417" y="233.3172">MQTT</text><line style="stroke:#181818;stroke-width:0.5;" x1="675.67" x2="993.0445" y1="245.16" y2="245.16"/><line style="stroke:#181818;stroke-width:0.5;" x1="675.67" x2="993.0445" y1="253.16" y2="253.16"/><ellipse cx="685.67" cy="265.1375" fill="#84BE84" rx="3" ry="3" style="stroke:#038048;stroke-width:1.0;"/><text fill="#000000" font-family="sans-serif" font-size="11" lengthAdjust="spacing" textLength="293.3745" x="694.67" y="267.7948">MQTT(client: WiFiClient*, broker: const char*, port: int)</text><ellipse cx="685.67" cy="278.0926" fill="#84BE84" rx="3" ry="3" style="stroke:#038048;stroke-width:1.0;"/><text fill="#000000" font-family="sans-serif" font-size="11" lengthAdjust="spacing" textLength="24.4546" x="694.67" y="280.7498">init()</text><ellipse cx="685.67" cy="291.0477" fill="#84BE84" rx="3" ry="3" style="stroke:#038048;stroke-width:1.0;"/><text fill="#000000" font-family="sans-serif" font-size="11" lengthAdjust="spacing" textLength="181.8921" x="694.67" y="293.7049">send(topic: Topic&amp;, value: double)</text><ellipse cx="685.67" cy="304.0028" fill="#84BE84" rx="3" ry="3" style="stroke:#038048;stroke-width:1.0;"/><text fill="#000000" font-family="sans-serif" font-size="11" lengthAdjust="spacing" textLength="147.8501" x="694.67" y="306.66">getMqttClient(): MqttClient*</text></g><!--class Topic--><g id="elem_Topic"><rect codeLine="70" fill="#F1F1F1" height="99.8203" id="Topic" rx="2.5" ry="2.5" style="stroke:#181818;stroke-width:0.5;" width="237.4116" x="740.65" y="493.62"/><ellipse cx="840.381" cy="509.62" fill="#ADD1B2" rx="11" ry="11" style="stroke:#181818;stroke-width:1.0;"/><path d="M843.3541,515.2631 Q842.773,515.5619 842.1339,515.7113 Q841.4947,515.8607 840.7892,515.8607 Q838.2823,515.8607 836.9625,514.2089 Q835.6427,512.557 835.6427,509.4359 Q835.6427,506.3065 836.9625,504.6547 Q838.2823,503.0028 840.7892,503.0028 Q841.4947,503.0028 842.1422,503.1522 Q842.7896,503.3016 843.3541,503.6005 L843.3541,506.3231 Q842.7232,505.7421 842.1297,505.4723 Q841.5362,505.2025 840.9054,505.2025 Q839.5606,505.2025 838.8758,506.2692 Q838.191,507.3358 838.191,509.4359 Q838.191,511.5277 838.8758,512.5944 Q839.5606,513.661 840.9054,513.661 Q841.5362,513.661 842.1297,513.3912 Q842.7232,513.1215 843.3541,512.5404 Z " fill="#000000"/><text fill="#000000" font-family="sans-serif" font-size="11" lengthAdjust="spacing" textLength="29.4497" x="860.881" y="513.7772">Topic</text><line style="stroke:#181818;stroke-width:0.5;" x1="741.65" x2="977.0616" y1="525.62" y2="525.62"/><line style="stroke:#181818;stroke-width:0.5;" x1="741.65" x2="977.0616" y1="533.62" y2="533.62"/><ellipse cx="751.65" cy="545.5975" fill="#84BE84" rx="3" ry="3" style="stroke:#038048;stroke-width:1.0;"/><text fill="#000000" font-family="sans-serif" font-size="11" lengthAdjust="spacing" textLength="211.4116" x="760.65" y="548.2548">Topic(name: const char*, interval: float)</text><ellipse cx="751.65" cy="558.5526" fill="#84BE84" rx="3" ry="3" style="stroke:#038048;stroke-width:1.0;"/><text fill="#000000" font-family="sans-serif" font-size="11" lengthAdjust="spacing" textLength="121.4243" x="760.65" y="561.2098">getTopic(): const char*</text><ellipse cx="751.65" cy="571.5077" fill="#84BE84" rx="3" ry="3" style="stroke:#038048;stroke-width:1.0;"/><text fill="#000000" font-family="sans-serif" font-size="11" lengthAdjust="spacing" textLength="95.0737" x="760.65" y="574.1649">getInterval(): float</text><ellipse cx="751.65" cy="584.4628" fill="#84BE84" rx="3" ry="3" style="stroke:#038048;stroke-width:1.0;"/><text fill="#000000" font-family="sans-serif" font-size="11" lengthAdjust="spacing" textLength="146.3247" x="760.65" y="587.12">update(value: double): bool</text></g><!--link GloveController to GestureControl--><g id="link_GloveController_GestureControl"><path codeLine="78" d="M393.9,81.27 C382.16,90.48 369.99,100.68 359.36,110.91 C349.35,120.53 343.4024,126.4745 333.6224,137.1045 " fill="none" id="GloveController-to-GestureControl" style="stroke:#181818;stroke-width:1.0;"/><polygon fill="#181818" points="329.56,141.52,338.5973,137.605,332.9454,137.8404,332.71,132.1885,329.56,141.52" style="stroke:#181818;stroke-width:1.0;"/></g><!--link GloveController to IMU--><g id="link_GloveController_IMU"><path codeLine="79" d="M386.41,53.86 C301.14,68.24 148.25,99.34 114.36,141.91 C42.75,231.85 52.369,366.3838 69.039,454.8538 " fill="none" id="GloveController-to-IMU" style="stroke:#181818;stroke-width:1.0;"/><polygon fill="#181818" points="70.15,460.75,72.4143,451.165,69.2242,455.8365,64.5527,452.6463,70.15,460.75" style="stroke:#181818;stroke-width:1.0;"/></g><!--link GloveController to FlexSensor--><g id="link_GloveController_FlexSensor"><path codeLine="80" d="M435.25,81.22 C430.82,99.39 425.56,121.75 421.36,141.91 C394.34,271.62 369.2382,420.3186 357.2282,493.7686 " fill="none" id="GloveController-to-FlexSensor" style="stroke:#181818;stroke-width:1.0;"/><polygon fill="#181818" points="356.26,499.69,361.6599,491.4534,357.0668,494.7555,353.7648,490.1625,356.26,499.69" style="stroke:#181818;stroke-width:1.0;"/></g><!--link GloveController to UserButton--><g id="link_GloveController_UserButton"><path codeLine="81" d="M454.23,81.29 C464.57,119.32 479.2064,173.19 490.1564,213.48 " fill="none" id="GloveController-to-UserButton" style="stroke:#181818;stroke-width:1.0;"/><polygon fill="#181818" points="491.73,219.27,493.2296,209.536,490.4187,214.445,485.5096,211.6341,491.73,219.27" style="stroke:#181818;stroke-width:1.0;"/></g><!--link GloveController to MQTT--><g id="link_GloveController_MQTT"><path codeLine="82" d="M502.2,57.73 C544.11,68.39 601.27,85.91 647.36,110.91 C698,138.37 743.9549,176.1081 779.6449,208.7881 " fill="none" id="GloveController-to-MQTT" style="stroke:#181818;stroke-width:1.0;"/><polygon fill="#181818" points="784.07,212.84,780.1336,203.812,780.3824,209.4634,774.731,209.7122,784.07,212.84" style="stroke:#181818;stroke-width:1.0;"/></g><!--link GloveController to WiFiWPA2--><g id="link_GloveController_WiFiWPA2"><path codeLine="83" d="M502.25,69.76 C532.29,85.79 566.54,109.72 585.36,141.91 C650.65,253.59 641.0979,407.4733 630.3879,487.2933 " fill="none" id="GloveController-to-WiFiWPA2" style="stroke:#181818;stroke-width:1.0;"/><polygon fill="#181818" points="629.59,493.24,634.7513,484.8519,630.2549,488.2844,626.8224,483.788,629.59,493.24" style="stroke:#181818;stroke-width:1.0;"/></g><!--link GestureControl to IMU--><g id="link_GestureControl_IMU"><path codeLine="85" d="M158.95,384.54 C153.5,394.49 148.24,404.48 143.36,414.23 C135.93,429.11 130.9944,439.767 124.3344,455.457 " fill="none" id="GestureControl-to-IMU" style="stroke:#181818;stroke-width:1.0;"/><polygon fill="#181818" points="121.99,460.98,129.1886,454.2584,123.9437,456.3775,121.8246,451.1325,121.99,460.98" style="stroke:#181818;stroke-width:1.0;"/><text fill="#000000" font-family="sans-serif" font-size="13" lengthAdjust="spacing" textLength="107.7515" x="144.36" y="427.7984">reads orientation</text></g><!--link GestureControl to FlexSensor--><g id="link_GestureControl_FlexSensor"><path codeLine="86" d="M249.27,384.38 C253.5,400.49 258.77,416.52 265.36,431.23 C276.38,455.87 289.9309,475.5242 306.0109,495.0942 " fill="none" id="GestureControl-to-FlexSensor" style="stroke:#181818;stroke-width:1.0;"/><polygon fill="#181818" points="309.82,499.73,307.1969,490.2369,306.6458,495.8668,301.0158,495.3157,309.82,499.73" style="stroke:#181818;stroke-width:1.0;"/><text fill="#000000" font-family="sans-serif" font-size="13" lengthAdjust="spacing" textLength="92.2886" x="266.36" y="427.7984">joystick/orient</text></g><!--link MQTT to Topic--><g id="link_MQTT_Topic"><path codeLine="88" d="M838.77,313.21 C843.33,363.96 849.8528,436.7041 854.4128,487.4341 " fill="none" id="MQTT-to-Topic" style="stroke:#181818;stroke-width:1.0;"/><polygon fill="#181818" points="854.95,493.41,858.1282,484.088,854.5024,488.4301,850.1603,484.8042,854.95,493.41" style="stroke:#181818;stroke-width:1.0;"/><text fill="#000000" font-family="sans-serif" font-size="13" lengthAdjust="spacing" textLength="60.5122" x="850.1" y="427.7984">publishes</text></g><!--link MQTT to WiFiWPA2--><g id="link_MQTT_WiFiWPA2"><path codeLine="89" d="M796.77,313.21 C757.95,363.96 701.3857,437.9146 662.5757,488.6446 " fill="none" id="MQTT-to-WiFiWPA2" style="stroke:#181818;stroke-width:1.0;"/><polygon fill="#181818" points="658.93,493.41,667.5754,488.6924,661.9681,489.4388,661.2216,483.8314,658.93,493.41" style="stroke:#181818;stroke-width:1.0;"/><text fill="#000000" font-family="sans-serif" font-size="13" lengthAdjust="spacing" textLength="94.9673" x="716.11" y="427.7984">uses WiFiClient</text></g><!--SRC=[TLJ1Rjim3BtxAtZgtAt1q1uDT40Ne5q6PEZI1jrwSspMrgA8daHttOR- -oJBYMp5koGYt-CpAL8qMw6QNESxA6Hkp3KflXD_4Cul4ZE6hfYrsBICWNCUSvR8DPL3GlBcyl8IvgGHveu1ramwBjn8UiQvvMgI4ZNyJG3U6UIsIK_TKHAvqsklSOE6MoVZ8uP27ja3JiU6ZxsfsBKPB9RhaqvRAC7-Ayz2SvlBp_JRi2YswPF4bmokxUyTAaFQyqaBL9op8FKVHeNyBJtDu4bIphtZU-nuZ1shevZLKT1g53Kx5E8CMp-lcp9dpA1LHbGAIv2aAWUMc9UFf2naNEf5qAXoeOwz-D9Ojk88sJV0L-lRYCD6scHyy-mXZQvNjyeVQfkCKDMek4PmKOyyRXJY-lj6VfeG2EZjaLJ0LYDHMuvFEtJGPn_ij77N8nIV0TSQJKsoxEouE9kI4zuGoQ2xDgW_jioal6wm3xgH3bDLIHmgTHV-1VaNwIsSs9dVxLebYcu01pV_8Ax5m-tLXV_GtefxKDCE5mVBteiZpgMRQFVDOBqDHIo_tjzxLNTAYmuVSSzWescBEeE2b64ewbnRPqEQfseqgCgKgH551lVkx-GCddFPskaigTr8t2Ut_CaSaWlM8BaktcVN7LELxp3AmsQ0sdwWR_jUtVDFH-GUMlGHeobgkyULZZED-hH2sJN6rABnxo9URRFPXsXBJLBi-vdqXycSXCE0JSAkWPF0VbwI9DgWVIwGWPjm0uFjDqKTFAGCVlIBzBqFIf9kaXpDTos3njwXC3MQ01tcs6unjrl2c2N_0000]--></g></svg>